<svg xmlns="http://www.w3.org/2000/svg" fill="none" viewBox="0 0 4096 4096"><path fill="#1A5C7A" d="m2741 938 8 2 8 6 30 24 75 72 6 6 61 65 33 39 48 59 62 94 9 16 4 8 2 11 2 13v7l1 25 1 19 6 93v7l1 7 7 34 2 10 14 39 43 103 4 7 11 23 30 57a4409 4409 0 0 0 232 392l12 19 5 9 5 8 5 8 11 26 5 18 2 10 1 11v11a2174 2174 0 0 1 1 133v7l-1 12-1 10-1 9-1 9-2 8-1 9-2 7-3 8-3 8-3 8-4 8-4 7-4 8-9 16-5 9-6 10-36 60-16 27-18 28-8 11-7 8-7 6-7 5-7 5-9 5-9 4-9 4-9 3-9 2-11 2-11 1h-27l-14-1-12-3-12-4-12-4-12-5-12-6-6-4-6-3-12-7-29-23-14-13-4-4 7 10 16 18 7 8 7 7 8 8 10 9 44 29 20 11v8l-11 4-45 12-13 2-7 1-8 1h-7a983 983 0 0 1-97 1h-16l-7-1-8-2-6-2-13-4-11-4-10-4-11-6-9-6-8-6-8-6-8-6-7-6-6-7-7-9-4-6-4-6-3-7-4-7-4-7-3-8-3-8-3-7-3-7-2-8-1-7-2-8-1-7-1-9-1-8-3-33v-50l1-12 1-11 2-10 3-10 3-9 6-16 3-7 7-12 7-6 9-6 9-4 44-13 11-4 10-3 10-4 7-4 6-3 11-9 8-10 3-6 4-6 4-7a1707 1707 0 0 0 61-111l11-21 3-7 6-12 3-10 3-8 3-9 3-9 7-19 4-12 4-13 11-35 2-10 6-18 1-9 1-7 1-7 1-12 3-12 6-10 8-4 9-5 10-4 11-3 10-4 10-3 9-2 9-2 14-1 10-3-3-12-5-7-5-8-31-51-51-82-64-112-6-10-66-126-5-10-3-10-3-14-9-46-3-11-3-11-3-10-6-27-9-49-2-10-6-22-4-12-6-11-6-11-13-23-8-12a3904 3904 0 0 0-124-193l-5-7-6-7-9-10-7-6v7l2 12 3 14 19 75 4 13a1687 1687 0 0 0 37 112l37 106a1889 1889 0 0 0 58 127 4417 4417 0 0 0 149 299l3 6 60 112 3 9-4 12-7-1-9-3-6-7-5-8-7-9-7-10-15-21-8-11-36-49-23-31-10-14-92-133-20-29-111-174-7-11-20-33-7-10-6-9-6-10-5-11-3-12-2-13-2-13-1-14-1-14-4-45v-8a2830 2830 0 0 1 0-291l1-14 1-11v-10z"/><path fill="#1A5C7A" d="M1894 798h8v7l-1 10-1 10-2 9-6 17-6 43v8l-2 44v28l1 49v10l1 8 1 8 1 8 2 7 1 7 3 13 27 100 6 28 2 7 1 7 1 8 1 7 1 7 3 60v12l-1 12v13l-1 12-1 13-12 79-3 12-18 74-2 10a1232 1232 0 0 0-15 120l-1 16v8l-1 18v39l3 34 2 11 4 25 2 12 6 25 4 12 4 13 24 60 8 19 3 7 4 7 3 7 7 11 7 11 7 12 16 24 4 6 5 6 51 60 6 7 6 6 9 7 52 39 8 5 7 4 14 8 7 3 11 6 9 7 2 8-1 8-2 9-3 11-2 7-3 16-1 8-1 7-7 38-3 21-2 15-1 8a1328 1328 0 0 0-6 113v8l-1 8-1 11-4-3-4-9-4-8-5-9-35-67-6-10-6-9a1175 1175 0 0 0-78-98l-6-7-6-7-72-74-56-57-10-10-8-8-6-8-6-7a1324 1324 0 0 1-67-96l-7-11-7-12-3-6-4-7-28-64-9-22-15-42-21-82-3-10-3-18-2-9-3-9-28-92-3-8-2-6-5-11-5-9-5-10-9-22-5-13-6-13-5-11-19-34-14-24-7-12-46-87-3-7-4-8-3-8-3-8-2-8-10-35-3-9-2-10-2-9-1-11-2-11-6-87v-7l1-7 1-14 3-13 4-9 6-9 7-7 7-6 6-6 7-5 7-4 8-6 7-6 16-14 44-37 9-8 23-18h8v-8h8l1 7v19l-1 10-4 11v11l1 108 1 9 2 9 1 8 1 8 2 7 2 8 23 72 3 8 4 8 7 15 7 14 7 15 3 8 28 76 3 10 10 45 3 13 4 8 2 13 4 33 1 7 1 7 4 12 1 12 1 14 1 13 1 13 2 8 2 8 1 13 2 23v7l1 13 4 12 2-9 2-14 2-15 1-7 1-7 2-11 9-42 2-8 4-20 3-15 2-10 3-10 2-12 1-12 1-13v-96l-1-7-1-7-3-30-2-7-2-12-2-9-2-7-4-13-3-8-18-51-4-13-10-24-4-12-18-59-2-9-2-8-1-9-2-10-1-9v-19l1-103v-16l1-14 1-11 2-10 4-9 8-8 9-7 11-6 6-4 6-3 45-27 15-9 56-32z"/><path fill="#1A5C7A" d="m1119 1577 4 4 8 16 3 9 24 56 5 11 5 10 5 9a1564 1564 0 0 0 94 149l48 84a2019 2019 0 0 1 63 142l10 34 3 7 14 35 3 6 11 26 47 98 10 17 5 9 31 46 53 67 56 59 9 9 10 8 28 23 22 18 75 56 87 60 75 59 18 15 5 5 8 7 8 6 7 7 54 52 7 8 7 7a1142 1142 0 0 1 57 79l42 79 10 21 4 10 5 9 3 9 4 9 8 31v5l-6-2-8-5-10-7-12-10-27-20-8-5-16-12-9-7a2265 2265 0 0 0-172-103l-12-7-208-117-103-66a1863 1863 0 0 1-126-105l-10-9-8-8-20-24-9-11-26-30-5-7a1014 1014 0 0 1-61-97l-32-58-45-83a1859 1859 0 0 0-73-115 2089 2089 0 0 0-117-151l-47-62-5-5-4-4v-10l1-12 1-13 2-13 3-12 21-61 4-12 4-11 20-60 38-91 6-13 13-28 6-13z"/><path fill="#1A5C7A" d="m620 2016 4 4 4 8 2 12 5 38 21 117 22 83 12 38 2 8 7 20 4 13 5 11 4 9 15 32 33 76 51 91a1816 1816 0 0 0 101 141 1981 1981 0 0 0 99 108l25 24 7 7 12 10 10 9 16 12 6 5 60 48 97 65a2146 2146 0 0 0 156 85l39 17 13 6 23 10 12 4 25 9 12 3 11 4 11 6 9 6 5 9 3 9 4 9 4 9 4 9c15 31 34 60 48 96l4 10 36 87 31 78 3 7 5 17-7 1-12-2-7-2-22-5-13-4-71-22-113-39-82-39-11-5-94-51-29-19-18-12-21-13-12-8a1207 1207 0 0 1-114-86l-10-9-11-9-53-48-15-14-50-48-10-10-7-8-13-15-8-9-9-10-69-89a1438 1438 0 0 1-111-201l-3-8-21-50a1505 1505 0 0 1-50-171l-12-62-2-11-9-59-1-10-4-96-1-12 3-133 1-24 1-8 3-36 1-11z"/><path fill="#1A5C7A" d="M1363 1217h4v14l1 9v10l3 43 1 11 2 10 2 11 11 45 4 11 4 12 4 11 14 36 6 12 8 19 4 6 22 40 27 46 43 78 19 41 4 12 5 11a1568 1568 0 0 1 41 141l30 103 5 10 4 9 4 8 3 9 7 17 4 10 5 12 35 68 5 8 5 8 4 6 7 12 8 11 68 85 52 55 9 8 23 24 8 7 16 14 8 7a1267 1267 0 0 1 176 191l43 74 33 79 9 28 3 11 21 96 5 25 2 11-5-6-7-10-24-37-4-7-42-57-6-7-6-7-49-54-5-6-4-5-7-7-7-6-8-7-10-8-48-41-8-7a2013 2013 0 0 0-144-104l-97-78-23-22-6-6-30-29-6-6-6-7-28-35-16-21-4-6-37-54-30-55-4-9-4-8-15-38-3-7-26-73-28-89-3-11-13-40-5-12-52-110-31-51-21-33-29-45-6-10-5-9-33-69-3-6-2-7-2-7-3-7-9-36-5-21-2-11-2-9-1-10-1-8v-10l4-10 4-7 16-23 6-9 18-25 5-6 65-85 13-15 5-6z"/><path fill="#1A5C7A" d="m2421 74 8 2 8 6 5 6 8 13 5 7 4 8 22 34 7 12 7 12 3 6 3 6a1181 1181 0 0 1 39 94l22 83 2 7 3 21 1 8 1 7 1 14v103l-1 7-1 12-1 10-1 9-2 8-2 9-1 7-4 13-2 10-3 8-3 8-4 10-3 7-3 7-15 32-5 8-20 29-23 29-7 8a1297 1297 0 0 1-76 77l-37 37-7 6-9 9-9 7-7 6-6 6-7 6-6 7-6 7-5 8-6 8-6 9-27 49-5 10-15 28-5 12-4 7h-8l-3-9-4-14-1-7-6-25-1-8a3302 3302 0 0 1-32-185 1194 1194 0 0 1 0-192l1-12 1-10 1-9 2-9 2-9 4-18 2-11 25-92 32-87 36-75a2235 2235 0 0 1 76-123l35-43 5-7 4-6 8-10 6-8 5-6z"/><path fill="#1A5C7A" d="m2202 1193 8 8 5 13 6 16 3 8 30 95 20 88 1 8 2 7 2 13 1 13 3 58v12l-1 37-2 12-1 12-3 12-2 12-3 12-2 12-4 12-3 12-5 12-4 13a1535 1535 0 0 1-64 139l-3 8-3 7-2 7-3 13-3 11-1 10-2 9-2 11-1 9 1 82 1 10 1 8 2 7 2 7 4 13 6 11 5 10 7 8 7 7 9 7 12 12 6 6 18 13 8 1-1-12-2-9-11-45-2-14-2-13v-69l1-13 1-12 1-10 1-9 2-8 2-8 2-7 2-8 3-7 35-79 25-48 6-12 11-22 6-10 4-10 5-10 3-10 3-10 3-10 4-30 2-11 6-73v-16l1-12 8 4 5 8 6 11 23 40 26 41 4 6 4 6 8 3 10 2 12 1 7 1 7 1 84 2h12l63 1 9 1 8 1 7 1 11 4 10 3 8 3 8 3 8 2 7 3 9 4 12 5 13 7 6 4 7 3 7 5 7 4 7 4 6 5a999 999 0 0 1 87 74l8 7 7 8 9 10a1120 1120 0 0 1 105 144l43 71 6 12 6 11 11 21 5 8 3 10 1 6-11-8-8-7-9-9-44-48-80-78-42-33-6-4-32-26-6-5-39-24-32-17-7-4-14-9-7-4-7-3-7-3-6-3-7-2-7-3-8-2-8-3-8-2-9-2-51-10-57-6-7-1-72-4h-8l-16 1-7 1-14 3-9 5-6 7-6 7-4 9-4 8-4 9-3 10-4 9-13 25-4 8-4 8-8 16-3 7-4 12-3 10-5 18-4 11-4 13-2 8-4 21-1 7-1 7v10l-1 56 1 11v11l2 10 2 10 1 9 5 17 2 8 2 7 2 7 5 13 4 11 5 9 2 7v8l-7-1-21-7-12-4-32-13-11-5-12-5-96-47-8-5-8-5-8-4-13-9-6-4-5-5-6-4-16-14-5-5-5-5-5-6-5-5-5-6-5-6-4-7-5-7-4-8-5-8-4-9-4-8-4-8-3-8-3-7-4-12-2-11-1-10-2-24-1-14 1-14v-8l1-7 1-8 1-7 2-7 4-16 2-9 6-17 3-9 4-9 26-54 50-111 10-25 3-8 2-9 9-34 5-25 1-8 11-60 8-117 1-32v-10l1-53v-28l1-8z"/><path fill="#1A5C7A" d="m3244 2856 12 4-2 6-5 7-6 9-6 9-6 10-34 49-12 15-84 101-8 9-31 38-5 6a1778 1778 0 0 1-95 100l-7 6-6 6-7 6a1297 1297 0 0 1-237 155l-88 40-8 3-7 3-7 2-12 4-10 3-12 4-18 8-11 4-44 14-12 3-11 3-11 3-11 3-10 2-8 2-7 1-9-3 3-14 4-10 5-12 39-86 70-145 6-13 9-20 9-19 5-11 6-10 10-6 10-6 10-4 11-4 12-5 89-38 64-32 59-34 11-7 91-63 15-12 7-5 13-10 6-5 8-10 9-9 15-11 8-2 10-2 12-1 13-1h64l10-1 8-1 8-1 21-3 6-1 7-1 41-11 19-5z"/><path fill="#1A5C7A" d="M951 2152h8l32 44 5 7 55 65a2404 2404 0 0 1 193 281l65 88 55 60 7 7a1059 1059 0 0 0 116 92l54 35 10 6 9 6 7 5v4l-11 1-7 1-16 2-7 1-8 1-7 2-12 3-10 5-9 5-9 7-9 6-9 8-7 8-7 10-7 11-5 12-8 21-2 9-2 7-9-2-11-6-7-4-7-4-98-67-28-21-9-8-38-35-6-7-13-12-6-6-22-21-5-5-5-6-44-56-5-7-25-34-5-7-5-8a1316 1316 0 0 1-55-103 1215 1215 0 0 1-38-106l-3-11-2-11-11-51-1-8-5-36-1-10v-51l-1-81v-30z"/><path fill="#1A5C7A" d="m2002 3119 12-1h12l13-1 12 1 51 1 9 2 7 1 13 4 11 4 12 5 6 3 7 3 15 7 7 3 7 4 7 4 7 4 7 5 6 5 7 5 7 6 6 5 7 6 6 6 6 6 10 13 5 7 5 6 4 7 12 19 6 12 5 10 5 10 4 8 4 12 10 38 2 10v10l1 9v41l-1 11v9l-2 8-1 7-3 12-3 11-3 10-2 7-2 8-4 7-4 6-9 3-9 2-11 1-11 1-12 2-45 5-10 1-21 1-9 1-51 3-12-4 2-7 6-9 7-10 9-10 47-62 7-9 6-9 3-9 1-7-6-8-9-10-10-10-23-25-65-67-7-8-5-6-4-6-7-8-7-3-9-1-10 8-5 5-6 6-6 6-18 19-13 12-56 61-6 7-14 15-6 6-4 7 3 9 5 11 7 10 7 9 63 82 3 11-7 2h-22l-14-2-14-1-70-4-13-1-13-1-12-1-12-2-10-3-9-3-5-5-4-5-3-7-2-7-1-8-1-8-1-115 1-13 2-10 2-9 2-9 2-8 3-7 12-27 4-7 3-6 11-18 15-21 7-11 9-10 8-9 18-16 10-8 12-8 7-4 7-4 23-13 7-4 8-3 8-4 10-3 11-3 11-3z"/><path fill="#1A5C7A" d="m3033 258 8-1 8 1 2 9 2 13 1 8a985 985 0 0 1 7 90 1782 1782 0 0 1-1 129l-1 12-7 46-1 11-2 10-3 10-4 19-3 9-18 57-3 8-6 14-4 8-3 7-4 7-5 7-5 7-5 8-5 6-5 7-6 7-5 7-6 6-7 7-6 6-7 6-6 6-7 6-6 5-7 6-36 26-6 4-10 6-8-4-5-11-6-14-3-7-2-7-4-13v-10l4-10 6-12 21-36 5-8 4-8 11-23 3-7 6-14 4-8 4-9 4-10 4-10 4-11 4-12 3-13 11-38 3-12 3-11v-6l-9 5-5 5-23 22-6 7-7 6-47 48-6 6-23 23-7 5-6 5-5 4h-12l-7-8-7-11-18-25-5-6-11-13-17-18-5-6-6-5-6-5-17-13-11-7-6-7 2-8 6-8 5-7 68-71 7-6 6-5 5-5 10-8 17-13 6-5 51-41 9-7a1563 1563 0 0 1 152-92l6-3 7-4z"/><path fill="#1A5C7A" d="m2090 718 10-3 6 3v11l-3 17-2 9-2 22-1 13a1072 1072 0 0 0-1 124l1 8 3 24 2 11 11 49 3 10 5 21 8 31 5 30 1 11-1 9-1 11-11 90-1 7-1 16-15 130-27 125-31 97-2 7-7 22-2 9-32 93-2 9-3 9-2 10-2 11-7 54-1 9-2 6-8-8-4-13-2-8-5-19-2-10-2-12-1-14-2-53 3-104 1-11 1-10 1-10 1-10 2-10 25-115 18-92 4-31 2-18 4-36 1-8v-57l-1-11-2-11-2-13a1743 1743 0 0 0-30-128l-2-8-2-9-2-10-2-12-2-12-2-49v-26l2-61 1-14 1-12 2-12 2-10 1-9 2-9 3-8 4-6 8-5 9-5 9-3 10-3 8-3 8-3 15-5 8-3z"/><path fill="#1A5C7A" d="m2580 1888 77 1h8l7 1 12 1 12 2 21 6 8 2 18 6 10 3 9 3 9 4 10 4 10 4 57 30 9 6 7 4 7 5 7 5 6 5a995 995 0 0 1 70 62l7 6a1208 1208 0 0 1 68 84v8l-7-3-9-5-7-4-8-5-53-35-9-4-48-24-7-4-11-5-11-5-12-5-6-2-8-3-10-2-11-3-24-6-13-2-12-3-13-2-13-2h-13l-12-1h-12l-86 2-12 1-9 2-4 9-4 11-3 6-4 7-9 13-4 8-4 7-4 8-4 7-5 13-3 13-1 7-1 7-1 8-1 8v11l-1 22v45l1 10 1 8 9 29 2 7v12l-7-2-9-6-9-5-31-18-11-7-11-6-9-6-9-6-7-8-5-8-3-11-3-12-3-12-3-13-1-7-1-8-2-17v-7l-1-8v-34l1-9v-10l2-9 1-9 2-9 7-25 2-8 2-8 5-11 4-10 5-9 22-32 8-11 8-10 8-10 8-9 6-8 10-5 9-2 10-1 10-1z"/><path fill="#1A5C7A" d="m2046 3567 9 2 11 6 6 5 7 6 7 7 7 8 8 7 7 8 7 8 7 7 5 6 4 6 8 11 6 10 9 21 3 10 3 10 2 10 1 8v17l-1 11-2 12-2 7-2 8-2 8-5 18-3 11a1663 1663 0 0 1-70 166l-4 7-14 27-4 7h-8l-14-27-5-8-45-95-4-9-22-59-3-9-3-8-2-9-2-7-2-8-2-7-2-13-2-12-1-10v-17l1-9 2-11 2-11 3-11 5-11 6-11 7-11 9-10 5-6 5-6 52-52 6-5z"/><path fill="#1A5C7A" d="m2365 1337 18-1 12 2 13 1 12 2 33 4 12 4 10 1h12l13 1 65 2 12 2 12 1 10 3 10 2 8 3 8 3 7 4 7 3 7 4 6 3 7 4 6 4 10 9 28 32 6 7 4 8 4 8 19 43 5 9 5 8 5 8 6 8 24 32 7 11 5 9-4 8-12-5-24-12-8-4-8-4-8-3-8-3-8-2-9-2-11-1h-7l-59 1h-8l-35 1-8-1h-8l-7-1-23-9-9-6-28-20-10-10-5-5-5-6-4-7-5-9-20-41-3-7-4-13-4-11-14-12-9-6-9-6-7-6-8-6-6-5-12-13-6-7z"/><path fill="#1A5C7A" d="M2709 2128h84l9 1 8 1 7 1 7 2 8 1 7 2 7 2 7 2 7 3 8 3 8 2 44 20 32 16 6 4 45 31 7 5 11 8 4 8-6 15-4 8-6 5-8 1-10-2-10-3-65-18-7-2-28-4h-9l-9-1-62 1-9 1h-9l-8 1-8 2-7 1-7 2-12 5-9 10-6 12-5 11-4 11-2 10-2 10-1 10 1 20v10l1 10 1 9 2 17 3 9 2 8 3 11-7-2-9-6-8-6-18-14-9-7-19-15-9-7-9-7-16-10-7-5-5-5-4-11v-20l-1-7v-42l1-8 1-7 2-7 3-13 5-13 9-18 4-6 4-6 4-6 8-10 8-10 5-7 5-5 10-8 8-1 18-2z"/><path fill="#1A5C7A" d="m2585 838 8 1 12 7 8 4 9 4 18 11 10 5 9 5 8 5 6 6 3 8v19l-1 9-3 19-1 10-5 33-3 22-16 94-3 16-1 8-1 9-1 8v9l2 30 2 56v22l-1 20-2 9-2 8-3 6-10 6h-12l-13-2-7-1-21-7-7-3-6-2-13-6-11-5-9-1-7-3-2-7v-33l2-56 13-81 4-22 3-21 1-11 1-10 1-10 1-9 2-8 4-15 2-8 2-10 6-33 10-55 2-10 6-24 1-7z"/><path fill="#1A5C7A" d="M2513 802h8v6l-20 84-9 30-26 79-3 9-48 140-3 9-3 10-1 22 1 9 1 22 1 10 1 10 1 7 4 4 2 10-2 10-8 3-52 1-25-1-10-3-9-8-6-10-3-12-2-14-3-7-3-7-3-7-3-8-3-7-2-6-3-14 1-21 3-7 2-7 8-15 4-8 5-8a1670 1670 0 0 1 177-264l7-9 19-27z"/><path fill="#1A5C7A" d="m2621 618 7 3 9 5 9 6 31 26 10 9 10 9 5 5 5 6 5 5 5 6 5 6 5 7 20 28 5 7 5 8 4 7 34 65 5 12 9 20 3 7 2 6 3 11 1 11-1 9-6-2-8-6-10-8-6-4a1513 1513 0 0 0-144-91l-10-5-9-5-47-19-7-3-7-3-10-6 2-10 6-10 20-27 4-6 4-7 4-9 19-45 3-8 2-6z"/><path fill="#1A5C7A" d="m2529 2932 10-1 11-1h12l11 2 9 3 7 4 7 4 5 5 8 8 4 8 2 7 2 9 2 29-2 10-3 9-5 7-6 7-6 5-11 8-13 4-8 2h-19l-9-2-8-1-7-3-6-3-13-10-5-7-5-7-4-9-2-8-2-10v-18l2-7 6-14 4-6 6-6 7-6 6-5 5-3z"/><path fill="#1A5C7A" d="m1539 2932 9-1 10-1h11l9 2 8 2 6 4 5 4 5 6 12 15 5 8 3 9 2 8 1 7-1 8-2 8-4 9-5 9-5 8-6 6-8 8-8 4-7 3-8 1-9 1-9 1h-9l-9-2-8-2-6-4-5-5-5-5-10-10-6-10-4-8-1-6v-17l1-9 1-7 3-7 3-7 5-6 5-7 7-5 6-5 6-3z"/><path fill="#C47A3A" d="m680 1713 11-1h23l167-3h28l9-1h17l8 1h6l10 4 1 8-3 11-5 10-5 11-3 10-2 8-3 9-45 176a1496 1496 0 0 0-17 123l-1 12-1 13v87l1 83v12l3 29 1 10 20 107 3 12a1408 1408 0 0 0 41 122l33 73 26 49 17 25 3 7-4 8-7-7-10-11-6-6-61-76-6-8-54-81a2324 2324 0 0 1-96-189 2143 2143 0 0 1-56-162l-15-64-2-9-20-103-1-11-2-10-5-41-1-12-1-13a1099 1099 0 0 1-1-102v-99l1-7z"/><path fill="#C47A3A" d="m1087 3291 8 4 11 8 6 4 13 8 6 4 20 15 17 12 7 5a1853 1853 0 0 0 344 178l27 9 13 5 74 21 9 3 60 16 39 7 7 2 55 10 7 1 14 1 13 1 37 3 10 2 8 2 6 3 1 10-5 12-4 7-4 6-4 7-4 6-3 9-2 9-2 9-2 27v10l1 12 1 7 2 7 2 8 25 80 32 71 6 12 10 19 2 7-8 4-6-8-5-5-5-7-7-6-16-14-9-8-8-7-9-8-10-10a1022 1022 0 0 0-202-136 3653 3653 0 0 0-210-110l-76-45-70-52-9-7-40-35-9-9-16-13-8-7-35-37-83-101-7-9-6-8-5-7-4-6z"/><path fill="#C47A3A" d="m2989 3295 8 4-5 9-4 6-4 6-5 7-59 79-13 16a1342 1342 0 0 1-72 79l-10 9-10 8-77 59-74 46-55 29-70 37-154 83-11 7-68 46-30 22-52 42-18 17-32 28-7 7-6 5-7 4 2-8 3-7 3-9 14-33 6-12 10-24 13-31 4-7 5-12 4-11 2-11 3-12 2-7 1-7v-9l1-9v-37l-1-9v-8l-2-13-3-10-3-8-4-9-6-8-5-9-4-8-1-7 6-4 9-1 11-1 13-1 26-3 13-1 14-1 12-2 120-22 8-3 9-2a1284 1284 0 0 0 124-41l16-6 77-30 141-70 99-62 80-59 9-7z"/><path fill="#C47A3A" d="M2414 234h8l7 31 2 9 10 44 6 27 4 22 1 10 1 10v11l1 94v7l-1 7-1 13-2 13-2 13-8 37-3 12-4 12-3 12-24 66-4 10-27 53-5 11-35 79-3 8-14 33-5 9-3 7v20l-7 6-9 10-5 7-11 18-5 10-15 27-4 6h-4l-1-9v-41l2-210 2-22 4-35 3-23 2-8 4-8 1-11 2-13 2-16 1-8 2-8 2-8 4-16 11-34 3-10 20-73 4-11 4-10 32-74 4-10 35-73 4-6z"/><path fill="#C47A3A" d="m1870 330 8-1 8 1 4 8 2 11 3 14 3 15 2 9 24 129 15 77 2 10 9 47 3 17 2 8 1 7 2 12-4 12-11 4-40 13-9 3-46 19-8 3-8 4-6 2h-8l-5-11-21-53-7-19-23-57-3-8-69-179-4-11-4-10-3-9-1-7 8-5 11-4 6-3 7-2a1011 1011 0 0 1 118-35l16-4 8-2 6-2z"/><path fill="#C47A3A" d="m1574 430 7 7 10 18 5 10 6 11 6 12 26 54 33 69 48 103 3 7 25 49 3 8 2 8-2 8-8 6-11 6-12 7-32 17-18 10-11 6-7 5-7 4-10 7h-12l-7-11-20-33-6-10-34-54-7-11-102-159-7-11-6-10-16-23-6-10 4-12 7-5 9-5 10-6 11-6 11-6 100-54 8-5z"/><path fill="#C47A3A" d="M1307 586h12l9 11 6 8 18 25 7 10a1994 1994 0 0 0 79 104l49 66 50 65 6 7 6 8 6 8-1 8-3 8-6 6-8 6-8 6-8 7-9 7-37 30-9 7-8 7-7 4-8-3-8-5-8-7-44-48-8-9-42-45-30-33-6-7-40-43-6-6-28-31-6-7-11-12-5-6-5-5-5-5-9-9-7-7v-12l5-6 8-6 9-7 10-9 59-49 19-16 6-4 6-5z"/><path fill="#C47A3A" d="m1095 778 12 6 6 5 6 5 8 7 24 25 7 6 7 6 47 43 37 34 71 66 43 38 6 5 6 5 5 4 7 9-2 7-6 9-52 52-5 5-11 14-6 8-6 4-8-1-16-7-7-6-9-7-10-7-10-7-32-24-11-9-63-48-29-22-111-83-6-6 2-9 6-11 5-7 7-8 14-17 7-9 16-19 7-8 24-29 5-7 5-6z"/><path fill="#C47A3A" d="m923 998 9 1 11 7 8 4 8 5 39 25 11 7 47 30 61 39 11 7 75 46 9 6 17 10 8 4 10 8-8 16-6 9-8 10-8 11-8 11-16 21-8 10-6 8-4 8-4 4h-9l-11-4-9-4-10-4-10-6-11-5-12-6-71-37-8-5-144-73-9-5-8-4-12-7-4-8 3-6 4-9 5-9 6-10 5-10 17-31 6-10 16-28 4-8 10-14z"/><path fill="#C47A3A" d="m799 1233 9 1 10 3 10 4 11 4 50 20 81 34 12 5 70 27 8 3 37 14 12 5 11 4 7 4v7l-4 9-5 10-7 12-3 6-11 19-11 19-10 17-5 9-4 8-10-1-7-1-42-11-10-2-59-18-18-6a2003 2003 0 0 0-127-35l-10-3-16-5-8-2-7-2-10-6v-10l2-6 2-8 4-9 16-45 4-11 8-23 5-12 4-11 5-9z"/><path fill="#C47A3A" d="m2063 302 59-3h14l13 1 9 2 3 13-1 8-2 7-2 10-2 8-2 10-2 12-7 55-1 9-12 72-1 10-4 61-1 11-1 10v11l-1 10-1 10-1 9-2 9-3 8-5 7-8 5-10 3-10 3-11 2-10 2-11 1-9 1-7-1-4-8-2-13-3-38-2-12-7-67-17-154-3-22-2-26v-7l-1-8 1-13 8-4 28-3z"/><path fill="#C47A3A" d="m716 1477 6-3h7l29 6 12 3 13 3 12 3 40 6 12 2 10 2 45 9 8 2 30 5 7 2 15 4 7 2 6 2 11 2 29 6 9 1 7 3v7l-4 9-4 9-4 11-4 10-3 11-9 21-4 11-4 11-5 9-7 7-9 2h-9l-11-1-11-1-41-4-10-1-21-2-12-1-45-7-7-1-15-1-15-1-15-2-16-1h-8l-16-1-7-1-13-2-10-3-4-12 1-8 3-8 6-47 4-20 2-9 1-8 1-7 2-12 3-10z"/><path fill="#C47A3A" d="M1906 3039h9l9-1 10 1-6 6-10 6-10 6-11 5-11 7-12 6-10 7-9 7-17 14-7 5-7 6-6 6-8 7-4 6-5 6-5 7-11 14-5 8-5 7-5 8-4 8-5 8-4 8-15 33-4 7-5 13-4 12-3 12-2 7-2 8-6 44-2 11-2 19-2 6-8-8-5-10-5-12-3-7-73-169-18-40v-10l13-6 8-3 9-3 10-3 30-9 20-6 128-36 8-1 13-3 15-3 7-1 7-2 22-4 9-2z"/><path fill="#C47A3A" d="M2238 3047h15l10 2 21 5 11 2 24 6 13 3 104 31 9 3 32 9 9 3 10 3 9 2 7 3 5 4 1 14-2 7-3 7-4 11-5 9-19 40-4 8-19 40-36 80-4 8-3 7-5 13-7 12-5 4-3-12-3-42-1-11-1-11-2-10-2-9-3-9-5-18-3-9-2-9-3-8-4-8-3-7-3-7-3-7-4-7-4-7-3-6-9-13-4-6-4-7-5-6-4-6-5-5-5-6-4-6-40-40-10-7-9-6-8-5-5-6-3-11z"/><path fill="#C47A3A" d="M1355 3111h8l2 15 2 21 1 11 9 105 1 10 3 40v11l-2 7-12-1-8-4-9-6-9-5-8-5-10-6-8-5-49-28-24-13-17-10-8-5-7-4-11-8 4-12 5-4 7-5 7-5 8-5 88-62 9-7 8-6 14-10z"/><path fill="#C47A3A" d="m2737 3111 10 2 10 6 8 6 25 21 7 5 59 43 9 7 8 6 8 6 6 4 6 10-13 12-22 13-11 7-94 56-8 5-9 5-8 5-7 1-2-11 1-9 1-10 2-20 1-11 1-11 6-89 2-39 1-8z"/><path fill="#C47A3A" d="M3185 2328h8l20 23 22 28 7 10 7 11 5 12 4 12 4 11 3 9 5 22v26l-1 8v8l-2 9-7 29-3 9-3 9-5 12-8-1-8-7-6-5-6-6-12-13-6-7-27-31-6-9-5-9-4-8-4-8-2-8-1-8-1-8-1-9-1-10 1-11 1-10 2-10 2-10 4-10 4-10 15-32z"/><path fill="#C47A3A" d="m2046 3327 8 3 8 5 8 7 43 42 8 7 5 8-3 9-5 7-37 43-10 11-9 11-8 7-8-3-8-5-7-6-22-23-7-8-8-8-6-8-6-7-6-12-2-8h8l4-7 4-9 6-7 21-22 8-8 7-8 7-7z"/></svg>